<mxfile modified="2023-08-23T13:49:42.073Z" host="app.diagrams.net" agent="Mozilla/5.0 (Macintosh; Intel Mac OS X 10_15_7) AppleWebKit/537.36 (KHTML, like Gecko) Chrome/116.0.0.0 Safari/537.36" etag="hGf7097a9rnSIAiGi2o7" version="21.6.8" type="device">
  <diagram id="Ht1M8jgEwFfnCIfOTk4-" name="Page-1">
    <mxGraphModel dx="1194" dy="524" grid="1" gridSize="10" guides="1" tooltips="1" connect="1" arrows="1" fold="1" page="1" pageScale="1" pageWidth="827" pageHeight="1169" math="0" shadow="0">
      <root>
        <mxCell id="0" />
        <mxCell id="1" parent="0" />
        <mxCell id="UEzPUAAOIrF-is8g5C7q-2" value="AWS Cloud" style="points=[[0,0],[0.25,0],[0.5,0],[0.75,0],[1,0],[1,0.25],[1,0.5],[1,0.75],[1,1],[0.75,1],[0.5,1],[0.25,1],[0,1],[0,0.75],[0,0.5],[0,0.25]];outlineConnect=0;gradientColor=none;html=1;whiteSpace=wrap;fontSize=12;fontStyle=0;shape=mxgraph.aws4.group;grIcon=mxgraph.aws4.group_aws_cloud_alt;strokeColor=#232F3E;fillColor=none;verticalAlign=top;align=left;spacingLeft=30;fontColor=#232F3E;dashed=0;container=1;pointerEvents=0;collapsible=0;recursiveResize=0;" parent="1" vertex="1">
          <mxGeometry x="170" y="170" width="910" height="625" as="geometry" />
        </mxCell>
        <mxCell id="ExGzcJAQRoewwnMDEtsl-25" value="us-east-1" style="points=[[0,0],[0.25,0],[0.5,0],[0.75,0],[1,0],[1,0.25],[1,0.5],[1,0.75],[1,1],[0.75,1],[0.5,1],[0.25,1],[0,1],[0,0.75],[0,0.5],[0,0.25]];outlineConnect=0;gradientColor=none;html=1;whiteSpace=wrap;fontSize=12;fontStyle=0;container=1;pointerEvents=0;collapsible=0;recursiveResize=0;shape=mxgraph.aws4.group;grIcon=mxgraph.aws4.group_region;strokeColor=#147EBA;fillColor=none;verticalAlign=top;align=left;spacingLeft=30;fontColor=#147EBA;dashed=1;" parent="UEzPUAAOIrF-is8g5C7q-2" vertex="1">
          <mxGeometry x="190" y="35" width="700" height="560" as="geometry" />
        </mxCell>
        <mxCell id="ExGzcJAQRoewwnMDEtsl-26" value="VPC" style="points=[[0,0],[0.25,0],[0.5,0],[0.75,0],[1,0],[1,0.25],[1,0.5],[1,0.75],[1,1],[0.75,1],[0.5,1],[0.25,1],[0,1],[0,0.75],[0,0.5],[0,0.25]];outlineConnect=0;gradientColor=none;html=1;whiteSpace=wrap;fontSize=12;fontStyle=0;container=1;pointerEvents=0;collapsible=0;recursiveResize=0;shape=mxgraph.aws4.group;grIcon=mxgraph.aws4.group_vpc;strokeColor=#248814;fillColor=none;verticalAlign=top;align=left;spacingLeft=30;fontColor=#AAB7B8;dashed=0;" parent="ExGzcJAQRoewwnMDEtsl-25" vertex="1">
          <mxGeometry x="80" y="62.5" width="600" height="460" as="geometry" />
        </mxCell>
        <mxCell id="ExGzcJAQRoewwnMDEtsl-28" value="us-east-1a" style="sketch=0;outlineConnect=0;gradientColor=none;html=1;whiteSpace=wrap;fontSize=12;fontStyle=0;shape=mxgraph.aws4.group;grIcon=mxgraph.aws4.group_availability_zone;strokeColor=#545B64;fillColor=none;verticalAlign=top;align=left;spacingLeft=30;fontColor=#545B64;dashed=1;" parent="ExGzcJAQRoewwnMDEtsl-26" vertex="1">
          <mxGeometry x="60" y="-40" width="210" height="510" as="geometry" />
        </mxCell>
        <mxCell id="ExGzcJAQRoewwnMDEtsl-35" value="subnet-public1-us-east-1a" style="points=[[0,0],[0.25,0],[0.5,0],[0.75,0],[1,0],[1,0.25],[1,0.5],[1,0.75],[1,1],[0.75,1],[0.5,1],[0.25,1],[0,1],[0,0.75],[0,0.5],[0,0.25]];outlineConnect=0;gradientColor=none;html=1;whiteSpace=wrap;fontSize=12;fontStyle=0;container=1;pointerEvents=0;collapsible=0;recursiveResize=0;shape=mxgraph.aws4.group;grIcon=mxgraph.aws4.group_security_group;grStroke=0;strokeColor=#248814;fillColor=#E9F3E6;verticalAlign=top;align=left;spacingLeft=30;fontColor=#248814;dashed=0;" parent="ExGzcJAQRoewwnMDEtsl-26" vertex="1">
          <mxGeometry x="73" y="20" width="177" height="190" as="geometry" />
        </mxCell>
        <mxCell id="ExGzcJAQRoewwnMDEtsl-39" value="EC2 Server" style="outlineConnect=0;dashed=0;verticalLabelPosition=bottom;verticalAlign=top;align=center;html=1;shape=mxgraph.aws3.ec2;fillColor=#F58534;gradientColor=none;" parent="ExGzcJAQRoewwnMDEtsl-35" vertex="1">
          <mxGeometry x="77" y="45" width="23" height="27" as="geometry" />
        </mxCell>
        <mxCell id="q85UzIq8mVvsXKcHLwb1-10" style="edgeStyle=orthogonalEdgeStyle;rounded=0;orthogonalLoop=1;jettySize=auto;html=1;entryX=0.5;entryY=1;entryDx=0;entryDy=0;strokeColor=#000099;" parent="ExGzcJAQRoewwnMDEtsl-35" source="ExGzcJAQRoewwnMDEtsl-43" target="ExGzcJAQRoewwnMDEtsl-48" edge="1">
          <mxGeometry relative="1" as="geometry" />
        </mxCell>
        <mxCell id="ExGzcJAQRoewwnMDEtsl-43" value="NAT Gateway" style="sketch=0;outlineConnect=0;fontColor=#232F3E;gradientColor=none;fillColor=#4D27AA;strokeColor=none;dashed=0;verticalLabelPosition=bottom;verticalAlign=top;align=center;html=1;fontSize=12;fontStyle=0;aspect=fixed;pointerEvents=1;shape=mxgraph.aws4.nat_gateway;" parent="ExGzcJAQRoewwnMDEtsl-35" vertex="1">
          <mxGeometry x="72.5" y="125" width="35" height="35" as="geometry" />
        </mxCell>
        <mxCell id="q85UzIq8mVvsXKcHLwb1-11" style="edgeStyle=orthogonalEdgeStyle;rounded=0;orthogonalLoop=1;jettySize=auto;html=1;strokeColor=#000099;" parent="ExGzcJAQRoewwnMDEtsl-35" source="ExGzcJAQRoewwnMDEtsl-48" target="ExGzcJAQRoewwnMDEtsl-43" edge="1">
          <mxGeometry relative="1" as="geometry" />
        </mxCell>
        <mxCell id="ExGzcJAQRoewwnMDEtsl-48" value="Security group" style="fillColor=none;strokeColor=#DD3522;verticalAlign=top;fontStyle=0;fontColor=#DD3522;whiteSpace=wrap;html=1;" parent="ExGzcJAQRoewwnMDEtsl-35" vertex="1">
          <mxGeometry x="40" y="25" width="100" height="75" as="geometry" />
        </mxCell>
        <mxCell id="ExGzcJAQRoewwnMDEtsl-37" value="subnet-private1-us-east-1a" style="points=[[0,0],[0.25,0],[0.5,0],[0.75,0],[1,0],[1,0.25],[1,0.5],[1,0.75],[1,1],[0.75,1],[0.5,1],[0.25,1],[0,1],[0,0.75],[0,0.5],[0,0.25]];outlineConnect=0;gradientColor=none;html=1;whiteSpace=wrap;fontSize=12;fontStyle=0;container=1;pointerEvents=0;collapsible=0;recursiveResize=0;shape=mxgraph.aws4.group;grIcon=mxgraph.aws4.group_security_group;grStroke=0;strokeColor=#147EBA;fillColor=#E6F2F8;verticalAlign=top;align=left;spacingLeft=30;fontColor=#147EBA;dashed=0;" parent="ExGzcJAQRoewwnMDEtsl-26" vertex="1">
          <mxGeometry x="73" y="240" width="177" height="210" as="geometry" />
        </mxCell>
        <mxCell id="ExGzcJAQRoewwnMDEtsl-47" value="S3" style="sketch=0;pointerEvents=1;shadow=0;dashed=0;html=1;strokeColor=none;fillColor=#DF8C42;labelPosition=center;verticalLabelPosition=bottom;verticalAlign=top;align=center;outlineConnect=0;shape=mxgraph.veeam2.aws_s3;" parent="ExGzcJAQRoewwnMDEtsl-37" vertex="1">
          <mxGeometry x="59.5" y="125" width="34" height="34" as="geometry" />
        </mxCell>
        <mxCell id="ExGzcJAQRoewwnMDEtsl-42" value="RDS" style="sketch=0;points=[[0,0,0],[0.25,0,0],[0.5,0,0],[0.75,0,0],[1,0,0],[0,1,0],[0.25,1,0],[0.5,1,0],[0.75,1,0],[1,1,0],[0,0.25,0],[0,0.5,0],[0,0.75,0],[1,0.25,0],[1,0.5,0],[1,0.75,0]];outlineConnect=0;fontColor=#232F3E;gradientColor=#4D72F3;gradientDirection=north;fillColor=#3334B9;strokeColor=#ffffff;dashed=0;verticalLabelPosition=bottom;verticalAlign=top;align=center;html=1;fontSize=12;fontStyle=0;aspect=fixed;shape=mxgraph.aws4.resourceIcon;resIcon=mxgraph.aws4.rds;" parent="ExGzcJAQRoewwnMDEtsl-26" vertex="1">
          <mxGeometry x="130" y="285" width="39" height="39" as="geometry" />
        </mxCell>
        <mxCell id="q85UzIq8mVvsXKcHLwb1-24" style="edgeStyle=orthogonalEdgeStyle;rounded=0;orthogonalLoop=1;jettySize=auto;html=1;strokeColor=#FF8000;" parent="ExGzcJAQRoewwnMDEtsl-26" source="ExGzcJAQRoewwnMDEtsl-53" target="ExGzcJAQRoewwnMDEtsl-47" edge="1">
          <mxGeometry relative="1" as="geometry">
            <Array as="points">
              <mxPoint x="120" y="353" />
              <mxPoint x="120" y="384" />
            </Array>
          </mxGeometry>
        </mxCell>
        <mxCell id="ExGzcJAQRoewwnMDEtsl-53" value="ACLs" style="sketch=0;outlineConnect=0;fontColor=#232F3E;gradientColor=none;fillColor=#4D27AA;strokeColor=none;dashed=0;verticalLabelPosition=bottom;verticalAlign=top;align=center;html=1;fontSize=12;fontStyle=0;aspect=fixed;pointerEvents=1;shape=mxgraph.aws4.network_access_control_list;" parent="ExGzcJAQRoewwnMDEtsl-26" vertex="1">
          <mxGeometry x="78" y="330" width="35" height="35" as="geometry" />
        </mxCell>
        <mxCell id="ExGzcJAQRoewwnMDEtsl-65" value="us-east-1b" style="sketch=0;outlineConnect=0;gradientColor=none;html=1;whiteSpace=wrap;fontSize=12;fontStyle=0;shape=mxgraph.aws4.group;grIcon=mxgraph.aws4.group_availability_zone;strokeColor=#545B64;fillColor=none;verticalAlign=top;align=left;spacingLeft=30;fontColor=#545B64;dashed=1;" parent="ExGzcJAQRoewwnMDEtsl-26" vertex="1">
          <mxGeometry x="380" y="-40" width="210" height="510" as="geometry" />
        </mxCell>
        <mxCell id="ExGzcJAQRoewwnMDEtsl-66" value="&lt;font style=&quot;font-size: 12px;&quot;&gt;subnet-public2-us-east-1b&lt;/font&gt;" style="points=[[0,0],[0.25,0],[0.5,0],[0.75,0],[1,0],[1,0.25],[1,0.5],[1,0.75],[1,1],[0.75,1],[0.5,1],[0.25,1],[0,1],[0,0.75],[0,0.5],[0,0.25]];outlineConnect=0;gradientColor=none;html=1;whiteSpace=wrap;fontSize=12;fontStyle=0;container=1;pointerEvents=0;collapsible=0;recursiveResize=0;shape=mxgraph.aws4.group;grIcon=mxgraph.aws4.group_security_group;grStroke=0;strokeColor=#248814;fillColor=#E9F3E6;verticalAlign=top;align=left;spacingLeft=30;fontColor=#248814;dashed=0;" parent="ExGzcJAQRoewwnMDEtsl-26" vertex="1">
          <mxGeometry x="393" y="20" width="177" height="190" as="geometry" />
        </mxCell>
        <mxCell id="ExGzcJAQRoewwnMDEtsl-67" value="EC2 Server" style="outlineConnect=0;dashed=0;verticalLabelPosition=bottom;verticalAlign=top;align=center;html=1;shape=mxgraph.aws3.ec2;fillColor=#F58534;gradientColor=none;" parent="ExGzcJAQRoewwnMDEtsl-66" vertex="1">
          <mxGeometry x="77" y="45" width="23" height="27" as="geometry" />
        </mxCell>
        <mxCell id="q85UzIq8mVvsXKcHLwb1-9" style="edgeStyle=orthogonalEdgeStyle;rounded=0;orthogonalLoop=1;jettySize=auto;html=1;entryX=0.5;entryY=1;entryDx=0;entryDy=0;strokeColor=#000099;" parent="ExGzcJAQRoewwnMDEtsl-66" source="ExGzcJAQRoewwnMDEtsl-68" target="ExGzcJAQRoewwnMDEtsl-69" edge="1">
          <mxGeometry relative="1" as="geometry" />
        </mxCell>
        <mxCell id="ExGzcJAQRoewwnMDEtsl-68" value="NAT Gateway" style="sketch=0;outlineConnect=0;fontColor=#232F3E;gradientColor=none;fillColor=#4D27AA;strokeColor=none;dashed=0;verticalLabelPosition=bottom;verticalAlign=top;align=center;html=1;fontSize=12;fontStyle=0;aspect=fixed;pointerEvents=1;shape=mxgraph.aws4.nat_gateway;" parent="ExGzcJAQRoewwnMDEtsl-66" vertex="1">
          <mxGeometry x="72.5" y="125" width="35" height="35" as="geometry" />
        </mxCell>
        <mxCell id="q85UzIq8mVvsXKcHLwb1-12" style="edgeStyle=orthogonalEdgeStyle;rounded=0;orthogonalLoop=1;jettySize=auto;html=1;strokeColor=#000099;" parent="ExGzcJAQRoewwnMDEtsl-66" source="ExGzcJAQRoewwnMDEtsl-69" target="ExGzcJAQRoewwnMDEtsl-68" edge="1">
          <mxGeometry relative="1" as="geometry" />
        </mxCell>
        <mxCell id="ExGzcJAQRoewwnMDEtsl-69" value="Security group" style="fillColor=none;strokeColor=#DD3522;verticalAlign=top;fontStyle=0;fontColor=#DD3522;whiteSpace=wrap;html=1;" parent="ExGzcJAQRoewwnMDEtsl-66" vertex="1">
          <mxGeometry x="40" y="25" width="100" height="75" as="geometry" />
        </mxCell>
        <mxCell id="ExGzcJAQRoewwnMDEtsl-70" value="&lt;font style=&quot;font-size: 12px;&quot;&gt;subnet-private2-us-east-1b&lt;/font&gt;" style="points=[[0,0],[0.25,0],[0.5,0],[0.75,0],[1,0],[1,0.25],[1,0.5],[1,0.75],[1,1],[0.75,1],[0.5,1],[0.25,1],[0,1],[0,0.75],[0,0.5],[0,0.25]];outlineConnect=0;gradientColor=none;html=1;whiteSpace=wrap;fontSize=12;fontStyle=0;container=1;pointerEvents=0;collapsible=0;recursiveResize=0;shape=mxgraph.aws4.group;grIcon=mxgraph.aws4.group_security_group;grStroke=0;strokeColor=#147EBA;fillColor=#E6F2F8;verticalAlign=top;align=left;spacingLeft=30;fontColor=#147EBA;dashed=0;" parent="ExGzcJAQRoewwnMDEtsl-26" vertex="1">
          <mxGeometry x="393" y="240" width="177" height="210" as="geometry" />
        </mxCell>
        <mxCell id="ExGzcJAQRoewwnMDEtsl-71" value="S3" style="sketch=0;pointerEvents=1;shadow=0;dashed=0;html=1;strokeColor=none;fillColor=#DF8C42;labelPosition=center;verticalLabelPosition=bottom;verticalAlign=top;align=center;outlineConnect=0;shape=mxgraph.veeam2.aws_s3;" parent="ExGzcJAQRoewwnMDEtsl-70" vertex="1">
          <mxGeometry x="59.5" y="125" width="34" height="34" as="geometry" />
        </mxCell>
        <mxCell id="ExGzcJAQRoewwnMDEtsl-72" value="RDS" style="sketch=0;points=[[0,0,0],[0.25,0,0],[0.5,0,0],[0.75,0,0],[1,0,0],[0,1,0],[0.25,1,0],[0.5,1,0],[0.75,1,0],[1,1,0],[0,0.25,0],[0,0.5,0],[0,0.75,0],[1,0.25,0],[1,0.5,0],[1,0.75,0]];outlineConnect=0;fontColor=#232F3E;gradientColor=#4D72F3;gradientDirection=north;fillColor=#3334B9;strokeColor=#ffffff;dashed=0;verticalLabelPosition=bottom;verticalAlign=top;align=center;html=1;fontSize=12;fontStyle=0;aspect=fixed;shape=mxgraph.aws4.resourceIcon;resIcon=mxgraph.aws4.rds;" parent="ExGzcJAQRoewwnMDEtsl-26" vertex="1">
          <mxGeometry x="450" y="285" width="39" height="39" as="geometry" />
        </mxCell>
        <mxCell id="ExGzcJAQRoewwnMDEtsl-80" value="" style="endArrow=classic;html=1;rounded=0;fillColor=#0050ef;strokeColor=#001DBC;entryX=0;entryY=0.25;entryDx=0;entryDy=0;" parent="ExGzcJAQRoewwnMDEtsl-26" target="ExGzcJAQRoewwnMDEtsl-69" edge="1">
          <mxGeometry width="50" height="50" relative="1" as="geometry">
            <mxPoint x="320" y="62.5" as="sourcePoint" />
            <mxPoint x="380.00039771823367" y="162.5" as="targetPoint" />
            <Array as="points" />
          </mxGeometry>
        </mxCell>
        <mxCell id="ExGzcJAQRoewwnMDEtsl-89" value="" style="edgeStyle=orthogonalEdgeStyle;rounded=0;orthogonalLoop=1;jettySize=auto;html=1;fontColor=#000000;fillColor=#fa6800;strokeColor=#C73500;" parent="ExGzcJAQRoewwnMDEtsl-26" source="ExGzcJAQRoewwnMDEtsl-88" target="ExGzcJAQRoewwnMDEtsl-48" edge="1">
          <mxGeometry relative="1" as="geometry">
            <Array as="points">
              <mxPoint x="230" y="100" />
              <mxPoint x="230" y="100" />
            </Array>
          </mxGeometry>
        </mxCell>
        <mxCell id="EnjP6tpWl0gaY5YBtMwa-1" style="edgeStyle=orthogonalEdgeStyle;rounded=0;orthogonalLoop=1;jettySize=auto;html=1;entryX=0;entryY=0.75;entryDx=0;entryDy=0;strokeColor=#C73500;" edge="1" parent="ExGzcJAQRoewwnMDEtsl-26" source="ExGzcJAQRoewwnMDEtsl-88" target="ExGzcJAQRoewwnMDEtsl-69">
          <mxGeometry relative="1" as="geometry">
            <Array as="points">
              <mxPoint x="387" y="100" />
              <mxPoint x="387" y="101" />
            </Array>
          </mxGeometry>
        </mxCell>
        <mxCell id="ExGzcJAQRoewwnMDEtsl-88" value="&lt;font style=&quot;font-size: 10px;&quot; color=&quot;#ff8000&quot;&gt;Auto Scalling Group&lt;/font&gt;" style="sketch=0;points=[[0,0,0],[0.25,0,0],[0.5,0,0],[0.75,0,0],[1,0,0],[0,1,0],[0.25,1,0],[0.5,1,0],[0.75,1,0],[1,1,0],[0,0.25,0],[0,0.5,0],[0,0.75,0],[1,0.25,0],[1,0.5,0],[1,0.75,0]];outlineConnect=0;fontColor=#232F3E;gradientColor=#F78E04;gradientDirection=north;fillColor=#D05C17;strokeColor=#ffffff;dashed=0;verticalLabelPosition=bottom;verticalAlign=top;align=center;html=1;fontSize=12;fontStyle=0;aspect=fixed;shape=mxgraph.aws4.resourceIcon;resIcon=mxgraph.aws4.auto_scaling2;" parent="ExGzcJAQRoewwnMDEtsl-26" vertex="1">
          <mxGeometry x="300" y="80" width="40" height="40" as="geometry" />
        </mxCell>
        <mxCell id="ExGzcJAQRoewwnMDEtsl-94" value="Internet Gateway" style="sketch=0;outlineConnect=0;fontColor=#232F3E;gradientColor=none;fillColor=#4D27AA;strokeColor=none;dashed=0;verticalLabelPosition=bottom;verticalAlign=top;align=center;html=1;fontSize=12;fontStyle=0;aspect=fixed;pointerEvents=1;shape=mxgraph.aws4.internet_gateway;" parent="ExGzcJAQRoewwnMDEtsl-26" vertex="1">
          <mxGeometry x="310" y="435" width="40" height="40" as="geometry" />
        </mxCell>
        <mxCell id="q85UzIq8mVvsXKcHLwb1-4" style="edgeStyle=orthogonalEdgeStyle;rounded=0;orthogonalLoop=1;jettySize=auto;html=1;strokeColor=#000099;" parent="ExGzcJAQRoewwnMDEtsl-26" source="ExGzcJAQRoewwnMDEtsl-43" target="ExGzcJAQRoewwnMDEtsl-94" edge="1">
          <mxGeometry relative="1" as="geometry">
            <Array as="points">
              <mxPoint x="162" y="223" />
              <mxPoint x="330" y="223" />
            </Array>
          </mxGeometry>
        </mxCell>
        <mxCell id="q85UzIq8mVvsXKcHLwb1-5" style="edgeStyle=orthogonalEdgeStyle;rounded=0;orthogonalLoop=1;jettySize=auto;html=1;strokeColor=#000099;" parent="ExGzcJAQRoewwnMDEtsl-26" source="ExGzcJAQRoewwnMDEtsl-68" target="ExGzcJAQRoewwnMDEtsl-94" edge="1">
          <mxGeometry relative="1" as="geometry">
            <Array as="points">
              <mxPoint x="482" y="223" />
              <mxPoint x="330" y="223" />
            </Array>
          </mxGeometry>
        </mxCell>
        <mxCell id="q85UzIq8mVvsXKcHLwb1-17" style="edgeStyle=orthogonalEdgeStyle;rounded=0;orthogonalLoop=1;jettySize=auto;html=1;strokeColor=#000099;" parent="ExGzcJAQRoewwnMDEtsl-26" source="q85UzIq8mVvsXKcHLwb1-15" target="ExGzcJAQRoewwnMDEtsl-94" edge="1">
          <mxGeometry relative="1" as="geometry" />
        </mxCell>
        <mxCell id="q85UzIq8mVvsXKcHLwb1-15" value="" style="sketch=0;outlineConnect=0;fontColor=#232F3E;gradientColor=none;fillColor=#4D27AA;strokeColor=none;dashed=0;verticalLabelPosition=bottom;verticalAlign=top;align=center;html=1;fontSize=12;fontStyle=0;aspect=fixed;pointerEvents=1;shape=mxgraph.aws4.customer_gateway;" parent="ExGzcJAQRoewwnMDEtsl-26" vertex="1">
          <mxGeometry x="120" y="210" width="27" height="27" as="geometry" />
        </mxCell>
        <mxCell id="q85UzIq8mVvsXKcHLwb1-18" style="edgeStyle=orthogonalEdgeStyle;rounded=0;orthogonalLoop=1;jettySize=auto;html=1;strokeColor=#000099;" parent="ExGzcJAQRoewwnMDEtsl-26" source="q85UzIq8mVvsXKcHLwb1-16" target="ExGzcJAQRoewwnMDEtsl-94" edge="1">
          <mxGeometry relative="1" as="geometry" />
        </mxCell>
        <mxCell id="q85UzIq8mVvsXKcHLwb1-16" value="" style="sketch=0;outlineConnect=0;fontColor=#232F3E;gradientColor=none;fillColor=#4D27AA;strokeColor=none;dashed=0;verticalLabelPosition=bottom;verticalAlign=top;align=center;html=1;fontSize=12;fontStyle=0;aspect=fixed;pointerEvents=1;shape=mxgraph.aws4.customer_gateway;" parent="ExGzcJAQRoewwnMDEtsl-26" vertex="1">
          <mxGeometry x="500" y="210" width="27" height="27" as="geometry" />
        </mxCell>
        <mxCell id="q85UzIq8mVvsXKcHLwb1-25" style="edgeStyle=orthogonalEdgeStyle;rounded=0;orthogonalLoop=1;jettySize=auto;html=1;strokeColor=#6666FF;" parent="ExGzcJAQRoewwnMDEtsl-26" source="ExGzcJAQRoewwnMDEtsl-48" target="ExGzcJAQRoewwnMDEtsl-53" edge="1">
          <mxGeometry relative="1" as="geometry">
            <Array as="points">
              <mxPoint x="50" y="103" />
              <mxPoint x="50" y="348" />
            </Array>
          </mxGeometry>
        </mxCell>
        <mxCell id="q85UzIq8mVvsXKcHLwb1-29" style="edgeStyle=orthogonalEdgeStyle;rounded=0;orthogonalLoop=1;jettySize=auto;html=1;strokeColor=#6666FF;" parent="ExGzcJAQRoewwnMDEtsl-26" source="ExGzcJAQRoewwnMDEtsl-69" target="ExGzcJAQRoewwnMDEtsl-74" edge="1">
          <mxGeometry relative="1" as="geometry">
            <Array as="points">
              <mxPoint x="580" y="73" />
              <mxPoint x="580" y="348" />
            </Array>
          </mxGeometry>
        </mxCell>
        <mxCell id="q85UzIq8mVvsXKcHLwb1-28" style="edgeStyle=orthogonalEdgeStyle;rounded=0;orthogonalLoop=1;jettySize=auto;html=1;strokeColor=#FF8000;" parent="ExGzcJAQRoewwnMDEtsl-26" source="ExGzcJAQRoewwnMDEtsl-74" edge="1">
          <mxGeometry relative="1" as="geometry">
            <mxPoint x="490" y="382.5" as="targetPoint" />
            <Array as="points">
              <mxPoint x="510" y="345" />
              <mxPoint x="510" y="383" />
            </Array>
          </mxGeometry>
        </mxCell>
        <mxCell id="ExGzcJAQRoewwnMDEtsl-74" value="ACLs" style="sketch=0;outlineConnect=0;fontColor=#232F3E;gradientColor=none;fillColor=#4D27AA;strokeColor=none;dashed=0;verticalLabelPosition=bottom;verticalAlign=top;align=center;html=1;fontSize=12;fontStyle=0;aspect=fixed;pointerEvents=1;shape=mxgraph.aws4.network_access_control_list;" parent="ExGzcJAQRoewwnMDEtsl-26" vertex="1">
          <mxGeometry x="527" y="330" width="35" height="35" as="geometry" />
        </mxCell>
        <mxCell id="rg9XvMPaiSiU5WUBSQuK-5" style="edgeStyle=orthogonalEdgeStyle;rounded=0;orthogonalLoop=1;jettySize=auto;html=1;entryX=0;entryY=0.5;entryDx=0;entryDy=0;entryPerimeter=0;strokeColor=#FF8000;" parent="ExGzcJAQRoewwnMDEtsl-26" source="ExGzcJAQRoewwnMDEtsl-48" target="ExGzcJAQRoewwnMDEtsl-42" edge="1">
          <mxGeometry relative="1" as="geometry">
            <Array as="points">
              <mxPoint x="50" y="103" />
              <mxPoint x="50" y="305" />
            </Array>
          </mxGeometry>
        </mxCell>
        <mxCell id="rg9XvMPaiSiU5WUBSQuK-9" style="edgeStyle=orthogonalEdgeStyle;rounded=0;orthogonalLoop=1;jettySize=auto;html=1;exitX=1;exitY=0.75;exitDx=0;exitDy=0;entryX=1;entryY=0.5;entryDx=0;entryDy=0;entryPerimeter=0;strokeColor=#FF8000;" parent="ExGzcJAQRoewwnMDEtsl-26" source="ExGzcJAQRoewwnMDEtsl-69" target="ExGzcJAQRoewwnMDEtsl-72" edge="1">
          <mxGeometry relative="1" as="geometry">
            <Array as="points">
              <mxPoint x="570" y="101" />
              <mxPoint x="570" y="305" />
            </Array>
          </mxGeometry>
        </mxCell>
        <mxCell id="ExGzcJAQRoewwnMDEtsl-61" value="&lt;font style=&quot;font-size: 10px;&quot;&gt;Elastic Load Balancing&lt;/font&gt;" style="sketch=0;points=[[0,0,0],[0.25,0,0],[0.5,0,0],[0.75,0,0],[1,0,0],[0,1,0],[0.25,1,0],[0.5,1,0],[0.75,1,0],[1,1,0],[0,0.25,0],[0,0.5,0],[0,0.75,0],[1,0.25,0],[1,0.5,0],[1,0.75,0]];outlineConnect=0;fontColor=#232F3E;gradientColor=#945DF2;gradientDirection=north;fillColor=#5A30B5;strokeColor=#ffffff;dashed=0;verticalLabelPosition=bottom;verticalAlign=top;align=center;html=1;fontSize=12;fontStyle=0;aspect=fixed;shape=mxgraph.aws4.resourceIcon;resIcon=mxgraph.aws4.elastic_load_balancing;" parent="ExGzcJAQRoewwnMDEtsl-25" vertex="1">
          <mxGeometry x="380" y="15" width="40" height="40" as="geometry" />
        </mxCell>
        <mxCell id="ExGzcJAQRoewwnMDEtsl-78" value="" style="endArrow=classic;html=1;rounded=0;exitX=0.5;exitY=1;exitDx=0;exitDy=0;exitPerimeter=0;fillColor=#0050ef;strokeColor=#001DBC;entryX=1;entryY=0.25;entryDx=0;entryDy=0;" parent="ExGzcJAQRoewwnMDEtsl-25" target="ExGzcJAQRoewwnMDEtsl-48" edge="1">
          <mxGeometry width="50" height="50" relative="1" as="geometry">
            <mxPoint x="400" y="52.5" as="sourcePoint" />
            <mxPoint x="344.99960228176633" y="225" as="targetPoint" />
            <Array as="points">
              <mxPoint x="400" y="125" />
            </Array>
          </mxGeometry>
        </mxCell>
        <mxCell id="_OY7_4knuKVSR3tfg4X5-40" style="edgeStyle=orthogonalEdgeStyle;rounded=0;orthogonalLoop=1;jettySize=auto;html=1;entryX=0;entryY=0.25;entryDx=0;entryDy=0;fillColor=#CC0000;strokeColor=#CC0000;" parent="ExGzcJAQRoewwnMDEtsl-25" source="ExGzcJAQRoewwnMDEtsl-105" target="ExGzcJAQRoewwnMDEtsl-48" edge="1">
          <mxGeometry relative="1" as="geometry">
            <Array as="points">
              <mxPoint x="100" y="253" />
              <mxPoint x="100" y="126" />
            </Array>
          </mxGeometry>
        </mxCell>
        <mxCell id="ExGzcJAQRoewwnMDEtsl-105" value="API Gateway" style="sketch=0;points=[[0,0,0],[0.25,0,0],[0.5,0,0],[0.75,0,0],[1,0,0],[0,1,0],[0.25,1,0],[0.5,1,0],[0.75,1,0],[1,1,0],[0,0.25,0],[0,0.5,0],[0,0.75,0],[1,0.25,0],[1,0.5,0],[1,0.75,0]];outlineConnect=0;fontColor=#232F3E;gradientColor=#FF4F8B;gradientDirection=north;fillColor=#BC1356;strokeColor=#ffffff;dashed=0;verticalLabelPosition=bottom;verticalAlign=top;align=center;html=1;fontSize=12;fontStyle=0;aspect=fixed;shape=mxgraph.aws4.resourceIcon;resIcon=mxgraph.aws4.api_gateway;" parent="ExGzcJAQRoewwnMDEtsl-25" vertex="1">
          <mxGeometry x="20.75" y="235" width="35" height="35" as="geometry" />
        </mxCell>
        <mxCell id="q85UzIq8mVvsXKcHLwb1-34" style="edgeStyle=orthogonalEdgeStyle;rounded=0;orthogonalLoop=1;jettySize=auto;html=1;entryX=0.5;entryY=0;entryDx=0;entryDy=0;entryPerimeter=0;strokeColor=#6666FF;" parent="ExGzcJAQRoewwnMDEtsl-25" source="ExGzcJAQRoewwnMDEtsl-8" target="ExGzcJAQRoewwnMDEtsl-61" edge="1">
          <mxGeometry relative="1" as="geometry">
            <Array as="points">
              <mxPoint x="110" y="52" />
              <mxPoint x="110" y="-15" />
              <mxPoint x="400" y="-15" />
            </Array>
          </mxGeometry>
        </mxCell>
        <mxCell id="ExGzcJAQRoewwnMDEtsl-8" value="&lt;font style=&quot;font-size: 11px;&quot;&gt;IAM&lt;/font&gt;" style="outlineConnect=0;dashed=0;verticalLabelPosition=bottom;verticalAlign=top;align=center;html=1;shape=mxgraph.aws3.iam;fillColor=#759C3E;gradientColor=none;" parent="ExGzcJAQRoewwnMDEtsl-25" vertex="1">
          <mxGeometry x="24.25" y="35" width="25.75" height="35" as="geometry" />
        </mxCell>
        <mxCell id="rg9XvMPaiSiU5WUBSQuK-3" value="SNS" style="outlineConnect=0;dashed=0;verticalLabelPosition=bottom;verticalAlign=top;align=center;html=1;shape=mxgraph.aws3.sns;fillColor=#D9A741;gradientColor=none;" parent="ExGzcJAQRoewwnMDEtsl-25" vertex="1">
          <mxGeometry x="20.75" y="415" width="46.75" height="33" as="geometry" />
        </mxCell>
        <mxCell id="ExGzcJAQRoewwnMDEtsl-108" value="Cloud Front" style="outlineConnect=0;dashed=0;verticalLabelPosition=bottom;verticalAlign=top;align=center;html=1;shape=mxgraph.aws3.cloudfront;fillColor=#F58536;gradientColor=none;" parent="UEzPUAAOIrF-is8g5C7q-2" vertex="1">
          <mxGeometry x="70" y="310" width="42.5" height="45" as="geometry" />
        </mxCell>
        <mxCell id="q85UzIq8mVvsXKcHLwb1-32" style="edgeStyle=orthogonalEdgeStyle;rounded=0;orthogonalLoop=1;jettySize=auto;html=1;exitX=0.5;exitY=0;exitDx=0;exitDy=0;exitPerimeter=0;entryX=0.26;entryY=0.5;entryDx=0;entryDy=0;entryPerimeter=0;strokeColor=#6666FF;" parent="UEzPUAAOIrF-is8g5C7q-2" source="ExGzcJAQRoewwnMDEtsl-54" target="ExGzcJAQRoewwnMDEtsl-8" edge="1">
          <mxGeometry relative="1" as="geometry">
            <Array as="points">
              <mxPoint x="66" y="20" />
              <mxPoint x="170" y="20" />
              <mxPoint x="170" y="88" />
            </Array>
          </mxGeometry>
        </mxCell>
        <mxCell id="ExGzcJAQRoewwnMDEtsl-54" value="Route 53" style="sketch=0;points=[[0,0,0],[0.25,0,0],[0.5,0,0],[0.75,0,0],[1,0,0],[0,1,0],[0.25,1,0],[0.5,1,0],[0.75,1,0],[1,1,0],[0,0.25,0],[0,0.5,0],[0,0.75,0],[1,0.25,0],[1,0.5,0],[1,0.75,0]];outlineConnect=0;fontColor=#232F3E;gradientColor=#945DF2;gradientDirection=north;fillColor=#5A30B5;strokeColor=#ffffff;dashed=0;verticalLabelPosition=bottom;verticalAlign=top;align=center;html=1;fontSize=12;fontStyle=0;aspect=fixed;shape=mxgraph.aws4.resourceIcon;resIcon=mxgraph.aws4.route_53;" parent="UEzPUAAOIrF-is8g5C7q-2" vertex="1">
          <mxGeometry x="43.25" y="35" width="45" height="45" as="geometry" />
        </mxCell>
        <mxCell id="rg9XvMPaiSiU5WUBSQuK-11" style="edgeStyle=orthogonalEdgeStyle;rounded=0;orthogonalLoop=1;jettySize=auto;html=1;strokeColor=#FF0000;" parent="UEzPUAAOIrF-is8g5C7q-2" source="rg9XvMPaiSiU5WUBSQuK-4" target="rg9XvMPaiSiU5WUBSQuK-3" edge="1">
          <mxGeometry relative="1" as="geometry">
            <Array as="points">
              <mxPoint x="250" y="521" />
            </Array>
          </mxGeometry>
        </mxCell>
        <mxCell id="rg9XvMPaiSiU5WUBSQuK-4" value="CloudWatch" style="sketch=0;points=[[0,0,0],[0.25,0,0],[0.5,0,0],[0.75,0,0],[1,0,0],[0,1,0],[0.25,1,0],[0.5,1,0],[0.75,1,0],[1,1,0],[0,0.25,0],[0,0.5,0],[0,0.75,0],[1,0.25,0],[1,0.5,0],[1,0.75,0]];points=[[0,0,0],[0.25,0,0],[0.5,0,0],[0.75,0,0],[1,0,0],[0,1,0],[0.25,1,0],[0.5,1,0],[0.75,1,0],[1,1,0],[0,0.25,0],[0,0.5,0],[0,0.75,0],[1,0.25,0],[1,0.5,0],[1,0.75,0]];outlineConnect=0;fontColor=#232F3E;gradientColor=#F34482;gradientDirection=north;fillColor=#BC1356;strokeColor=#ffffff;dashed=0;verticalLabelPosition=bottom;verticalAlign=top;align=center;html=1;fontSize=12;fontStyle=0;aspect=fixed;shape=mxgraph.aws4.resourceIcon;resIcon=mxgraph.aws4.cloudwatch_2;" parent="UEzPUAAOIrF-is8g5C7q-2" vertex="1">
          <mxGeometry x="50" y="501.75" width="38.25" height="38.25" as="geometry" />
        </mxCell>
        <mxCell id="rg9XvMPaiSiU5WUBSQuK-10" style="edgeStyle=orthogonalEdgeStyle;rounded=0;orthogonalLoop=1;jettySize=auto;html=1;entryX=1;entryY=0.75;entryDx=0;entryDy=0;entryPerimeter=0;strokeColor=#FF9933;" parent="UEzPUAAOIrF-is8g5C7q-2" source="ExGzcJAQRoewwnMDEtsl-48" target="rg9XvMPaiSiU5WUBSQuK-4" edge="1">
          <mxGeometry relative="1" as="geometry">
            <Array as="points">
              <mxPoint x="280" y="180" />
              <mxPoint x="280" y="530" />
            </Array>
          </mxGeometry>
        </mxCell>
        <mxCell id="UEzPUAAOIrF-is8g5C7q-1" value="Users" style="points=[[0,0],[0.25,0],[0.5,0],[0.75,0],[1,0],[1,0.25],[1,0.5],[1,0.75],[1,1],[0.75,1],[0.5,1],[0.25,1],[0,1],[0,0.75],[0,0.5],[0,0.25]];outlineConnect=0;gradientColor=none;html=1;whiteSpace=wrap;fontSize=12;fontStyle=0;shape=mxgraph.aws4.group;grIcon=mxgraph.aws4.group_corporate_data_center;strokeColor=#5A6C86;fillColor=none;verticalAlign=top;align=left;spacingLeft=30;fontColor=#5A6C86;dashed=0;container=1;pointerEvents=0;collapsible=0;recursiveResize=0;" parent="1" vertex="1">
          <mxGeometry x="30" y="170" width="120" height="625" as="geometry" />
        </mxCell>
        <mxCell id="ExGzcJAQRoewwnMDEtsl-6" value="&lt;span style=&quot;font-family: Helvetica; font-size: 12px; font-style: normal; font-variant-ligatures: normal; font-variant-caps: normal; letter-spacing: normal; orphans: 2; text-align: center; text-indent: 0px; text-transform: none; widows: 2; word-spacing: 0px; -webkit-text-stroke-width: 0px; background-color: rgb(251, 251, 251); text-decoration-thickness: initial; text-decoration-style: initial; text-decoration-color: initial; float: none; display: inline !important; font-weight: normal;&quot;&gt;&lt;font style=&quot;&quot; color=&quot;#000000&quot;&gt;Administration / &lt;br&gt;Management / &lt;br&gt;Developers&lt;/font&gt;&lt;/span&gt;" style="sketch=0;outlineConnect=0;fontColor=#ffffff;fillColor=#008a00;strokeColor=#000000;dashed=0;verticalLabelPosition=bottom;verticalAlign=top;align=center;html=1;fontSize=12;fontStyle=1;aspect=fixed;pointerEvents=1;shape=mxgraph.aws4.client;points=[[0,0.5,0,0,0]];" parent="UEzPUAAOIrF-is8g5C7q-1" vertex="1">
          <mxGeometry x="27.5" y="170" width="61.57" height="60" as="geometry" />
        </mxCell>
        <mxCell id="ExGzcJAQRoewwnMDEtsl-15" value="&lt;font color=&quot;#000000&quot;&gt;Pateints&lt;/font&gt;" style="sketch=0;outlineConnect=0;fontColor=#ffffff;fillColor=#60a917;strokeColor=#2D7600;dashed=0;verticalLabelPosition=bottom;verticalAlign=top;align=center;html=1;fontSize=12;fontStyle=0;aspect=fixed;pointerEvents=1;shape=mxgraph.aws4.user;" parent="UEzPUAAOIrF-is8g5C7q-1" vertex="1">
          <mxGeometry x="30" y="285" width="59.07" height="59.07" as="geometry" />
        </mxCell>
        <mxCell id="ExGzcJAQRoewwnMDEtsl-97" value="Internet" style="outlineConnect=0;dashed=0;verticalLabelPosition=bottom;verticalAlign=top;align=center;html=1;shape=mxgraph.aws3.internet;fillColor=#D2D3D3;gradientColor=none;" parent="UEzPUAAOIrF-is8g5C7q-1" vertex="1">
          <mxGeometry x="37.040000000000006" y="530" width="50" height="55" as="geometry" />
        </mxCell>
        <mxCell id="-QjtrjUzRDEMRZ5MF8oH-47" value="Hospital Cloud Architecture" style="text;html=1;resizable=0;points=[];autosize=1;align=left;verticalAlign=top;spacingTop=-4;fontSize=30;fontStyle=1" parent="1" vertex="1">
          <mxGeometry x="12" y="65.5" width="420" height="40" as="geometry" />
        </mxCell>
        <mxCell id="SCVMTBWpLvtzJIhz15lM-1" value="" style="line;strokeWidth=2;html=1;fontSize=14;" parent="1" vertex="1">
          <mxGeometry x="8" y="140.5" width="1072" height="10" as="geometry" />
        </mxCell>
        <mxCell id="ExGzcJAQRoewwnMDEtsl-98" style="edgeStyle=orthogonalEdgeStyle;rounded=0;orthogonalLoop=1;jettySize=auto;html=1;fillColor=#0050ef;strokeColor=#001DBC;" parent="1" source="ExGzcJAQRoewwnMDEtsl-94" target="ExGzcJAQRoewwnMDEtsl-97" edge="1">
          <mxGeometry relative="1" as="geometry">
            <Array as="points">
              <mxPoint x="430" y="745" />
              <mxPoint x="430" y="745" />
            </Array>
          </mxGeometry>
        </mxCell>
        <mxCell id="ExGzcJAQRoewwnMDEtsl-106" style="edgeStyle=orthogonalEdgeStyle;rounded=0;orthogonalLoop=1;jettySize=auto;html=1;entryX=0.5;entryY=0;entryDx=0;entryDy=0;entryPerimeter=0;fillColor=#e51400;strokeColor=#B20000;" parent="1" source="ExGzcJAQRoewwnMDEtsl-6" target="ExGzcJAQRoewwnMDEtsl-105" edge="1">
          <mxGeometry relative="1" as="geometry">
            <Array as="points">
              <mxPoint x="398" y="350" />
            </Array>
          </mxGeometry>
        </mxCell>
        <mxCell id="ExGzcJAQRoewwnMDEtsl-109" value="" style="endArrow=classic;startArrow=classic;html=1;rounded=0;entryX=0;entryY=0.5;entryDx=0;entryDy=0;entryPerimeter=0;fillColor=#fa6800;strokeColor=#C73500;" parent="1" target="ExGzcJAQRoewwnMDEtsl-108" edge="1">
          <mxGeometry width="50" height="50" relative="1" as="geometry">
            <mxPoint x="120" y="503" as="sourcePoint" />
            <mxPoint x="260" y="630" as="targetPoint" />
          </mxGeometry>
        </mxCell>
        <mxCell id="ExGzcJAQRoewwnMDEtsl-111" value="" style="endArrow=classic;startArrow=classic;html=1;rounded=0;entryX=0.5;entryY=0;entryDx=0;entryDy=0;entryPerimeter=0;fillColor=#fa6800;strokeColor=#C73500;" parent="1" source="ExGzcJAQRoewwnMDEtsl-6" target="ExGzcJAQRoewwnMDEtsl-108" edge="1">
          <mxGeometry width="50" height="50" relative="1" as="geometry">
            <mxPoint x="280" y="520" as="sourcePoint" />
            <mxPoint x="330" y="470" as="targetPoint" />
            <Array as="points">
              <mxPoint x="261" y="370" />
            </Array>
          </mxGeometry>
        </mxCell>
        <mxCell id="ExGzcJAQRoewwnMDEtsl-60" value="" style="endArrow=classic;startArrow=classic;html=1;rounded=0;strokeColor=#6666FF;" parent="1" source="ExGzcJAQRoewwnMDEtsl-6" target="ExGzcJAQRoewwnMDEtsl-54" edge="1">
          <mxGeometry width="50" height="50" relative="1" as="geometry">
            <mxPoint x="50" y="335" as="sourcePoint" />
            <mxPoint x="100" y="285" as="targetPoint" />
            <Array as="points">
              <mxPoint x="90" y="228" />
            </Array>
          </mxGeometry>
        </mxCell>
        <mxCell id="q85UzIq8mVvsXKcHLwb1-19" value="" style="endArrow=classic;startArrow=classic;html=1;rounded=0;entryX=1;entryY=0.5;entryDx=0;entryDy=0;entryPerimeter=0;strokeColor=#6666FF;" parent="1" source="ExGzcJAQRoewwnMDEtsl-15" target="ExGzcJAQRoewwnMDEtsl-54" edge="1">
          <mxGeometry width="50" height="50" relative="1" as="geometry">
            <mxPoint x="230" y="680" as="sourcePoint" />
            <mxPoint x="280" y="630" as="targetPoint" />
            <Array as="points">
              <mxPoint x="90" y="580" />
              <mxPoint x="310" y="580" />
              <mxPoint x="310" y="400" />
              <mxPoint x="310" y="228" />
            </Array>
          </mxGeometry>
        </mxCell>
        <mxCell id="rg9XvMPaiSiU5WUBSQuK-12" style="edgeStyle=orthogonalEdgeStyle;rounded=0;orthogonalLoop=1;jettySize=auto;html=1;entryX=0;entryY=0.5;entryDx=0;entryDy=0;entryPerimeter=0;strokeColor=#FF9933;" parent="1" source="rg9XvMPaiSiU5WUBSQuK-3" target="ExGzcJAQRoewwnMDEtsl-6" edge="1">
          <mxGeometry relative="1" as="geometry" />
        </mxCell>
      </root>
    </mxGraphModel>
  </diagram>
</mxfile>
